<svg width="126" height="108" xmlns="http://www.w3.org/2000/svg">

 <g>
  <title>background</title>
  <rect fill="none" id="canvas_background" height="110" width="128" y="-1" x="-1"/>
 </g>
 <g>
  <title>Layer 1</title>
  <g id="svg_1">
   <path fill="#91dc5a" id="svg_2" d="m88.201,37.5l-8.524,0l-4,-10l-25.354,0l-4,10l-1.323,0l0,-5l-6,0l0,5l-1.201,0c-2.647,0 -4.799,2.152 -4.799,4.799l0,29.368c0,2.665 2.168,4.833 4.833,4.833l50.334,0c2.665,0 4.833,-2.168 4.833,-4.833l0,-29.368c0,-2.647 -2.152,-4.799 -4.799,-4.799zm-47.201,-3l2,0l0,3l-2,0l0,-3zm50,37.167c0,1.563 -1.271,2.833 -2.833,2.833l-50.334,0c-1.562,0 -2.833,-1.271 -2.833,-2.833l0,-29.368c0,-1.543 1.256,-2.799 2.799,-2.799l1.201,0l6,0l2.677,0l4,-10l22.646,0l4,10l9.878,0c1.543,0 2.799,1.256 2.799,2.799l0,29.368z"/>
   <path fill="#91dc5a" id="svg_3" d="m63,36.5c-9.925,0 -18,8.075 -18,18s8.075,18 18,18s18,-8.075 18,-18s-8.075,-18 -18,-18zm0,34c-8.822,0 -16,-7.178 -16,-16s7.178,-16 16,-16s16,7.178 16,16s-7.178,16 -16,16z"/>
   <path fill="#91dc5a" id="svg_4" d="m63,42.5c-6.617,0 -12,5.383 -12,12s5.383,12 12,12s12,-5.383 12,-12s-5.383,-12 -12,-12zm0,22c-5.514,0 -10,-4.486 -10,-10s4.486,-10 10,-10s10,4.486 10,10s-4.486,10 -10,10z"/>
   <path fill="#91dc5a" id="svg_5" d="m85,41.5c-2.206,0 -4,1.794 -4,4s1.794,4 4,4s4,-1.794 4,-4s-1.794,-4 -4,-4zm0,6c-1.103,0 -2,-0.897 -2,-2s0.897,-2 2,-2s2,0.897 2,2s-0.897,2 -2,2z"/>
  </g>
  <g id="svg_6"/>
  <g id="svg_7"/>
  <g id="svg_8"/>
  <g id="svg_9"/>
  <g id="svg_10"/>
  <g id="svg_11"/>
  <g id="svg_12"/>
  <g id="svg_13"/>
  <g id="svg_14"/>
  <g id="svg_15"/>
  <g id="svg_16"/>
  <g id="svg_17"/>
  <g id="svg_18"/>
  <g id="svg_19"/>
  <g id="svg_20"/>
 </g>
</svg>